<?xml version="1.0" encoding="UTF-8" standalone="no"?>
<svg
   viewBox="0 0 128 128"
   fill="none"
   version="1.1"
   id="svg1"
   sodipodi:docname="icon.svg"
   inkscape:export-filename="icon.png"
   inkscape:export-xdpi="96"
   inkscape:export-ydpi="96"
   inkscape:version="1.4 (e7c3feb1, 2024-10-09)"
   xmlns:inkscape="http://www.inkscape.org/namespaces/inkscape"
   xmlns:sodipodi="http://sodipodi.sourceforge.net/DTD/sodipodi-0.dtd"
   xmlns="http://www.w3.org/2000/svg"
   xmlns:svg="http://www.w3.org/2000/svg">
  <defs
     id="defs1" />
  <sodipodi:namedview
     id="namedview1"
     pagecolor="#ffffff"
     bordercolor="#000000"
     borderopacity="0"
     inkscape:showpageshadow="2"
     inkscape:pageopacity="0.0"
     inkscape:pagecheckerboard="0"
     inkscape:deskcolor="#d1d1d1"
     inkscape:export-bgcolor="#ffffff00"
     inkscape:zoom="4.6328125"
     inkscape:cx="63.892074"
     inkscape:cy="64"
     inkscape:window-width="1680"
     inkscape:window-height="814"
     inkscape:window-x="429"
     inkscape:window-y="95"
     inkscape:window-maximized="0"
     inkscape:current-layer="svg1" />
  <path
     d="m 64.165262,4.7919063 c -15.532116,0 -28.240212,12.2687857 -28.240212,30.0816827 V 54.30584 h -5.648042 c -4.678991,0 -8.472063,4.350058 -8.472063,9.716128 v 45.341922 c -4e-6,5.36607 3.79307,9.71613 8.472063,9.71613 h 67.77651 c 4.678982,0 8.472042,-4.35006 8.472042,-9.71613 V 64.021968 c 0,-5.366066 -3.79306,-9.716122 -8.472042,-9.716128 H 92.405472 V 34.873589 c 0,-17.812897 -12.708095,-30.0816827 -28.24021,-30.0816827 z M 50.045155,34.873589 c 0,-8.906449 6.354049,-16.193542 14.120107,-16.193542 7.766059,0 14.120105,7.287093 14.120105,16.193542 V 54.30584 H 50.045155 Z m 14.120107,38.864505 c 8.678554,-0.01106 11.757455,13.17138 4.236031,18.136768 v 11.011608 c 0.0018,6.47955 -8.470199,6.47955 -8.472063,0 V 91.874862 C 52.407806,86.909474 55.48671,73.727008 64.165262,73.738094 Z"
     fill="#4caf50"
     id="path1"
     style="stroke-width:1.51213"
     sodipodi:nodetypes="sscsscscssscsssssccscccccc" />
</svg>
